<?xml version="1.0" encoding="UTF-8" standalone="no"?>
<!-- Created with Inkscape (http://www.inkscape.org/) -->

<svg
   width="116.41666mm"
   height="116.41667mm"
   viewBox="0 0 116.41666 116.41667"
   version="1.1"
   id="svg1"
   xml:space="preserve"
   xmlns="http://www.w3.org/2000/svg"
   xmlns:svg="http://www.w3.org/2000/svg"><defs
     id="defs1"><marker
       style="overflow:visible"
       id="ArrowWide-4"
       refX="0"
       refY="0"
       orient="auto-start-reverse"
       markerWidth="1"
       markerHeight="1"
       viewBox="0 0 1 1"
       preserveAspectRatio="xMidYMid"><path
         style="fill:none;stroke:context-stroke;stroke-width:1;stroke-linecap:butt"
         d="M 3,-3 0,0 3,3"
         transform="rotate(180,0.125,0)"
         id="path3-5" /></marker><marker
       style="overflow:visible"
       id="marker4-7"
       refX="0"
       refY="0"
       orient="auto-start-reverse"
       markerWidth="1"
       markerHeight="1"
       viewBox="0 0 1 1"
       preserveAspectRatio="xMidYMid"><path
         style="fill:none;stroke:context-stroke;stroke-width:1;stroke-linecap:butt"
         d="M 3,-3 0,0 3,3"
         transform="rotate(180,0.125,0)"
         id="path4-1" /></marker></defs><g
     id="layer1"
     transform="translate(-79.339487,-122.17823)"><g
       style="fill:none"
       id="g12"
       transform="matrix(4.7007891,0,0,4.7007891,79.338427,121.91487)"><path
         fill="#e24329"
         d="M 24.507,9.5 24.473,9.41 21.082,0.562 a 0.896,0.896 0 0 0 -1.694,0.091 l -2.29,7.01 H 7.825 L 5.535,0.653 A 0.898,0.898 0 0 0 3.841,0.563 L 0.451,9.411 0.416,9.5 a 6.297,6.297 0 0 0 2.09,7.278 l 0.012,0.01 0.03,0.022 5.16,3.867 2.56,1.935 1.554,1.176 a 1.051,1.051 0 0 0 1.268,0 l 1.555,-1.176 2.56,-1.935 5.197,-3.89 0.014,-0.01 A 6.297,6.297 0 0 0 24.507,9.5 Z"
         class="tanuki-shape tanuki"
         id="path1-2" /><path
         fill="#fc6d26"
         d="M 24.507,9.5 24.473,9.41 a 11.44,11.44 0 0 0 -4.56,2.051 l -7.447,5.632 4.742,3.584 5.197,-3.89 0.014,-0.01 A 6.297,6.297 0 0 0 24.507,9.5 Z"
         class="tanuki-shape right-cheek"
         id="path2-3" /><path
         fill="#fca326"
         d="m 7.707,20.677 2.56,1.935 1.555,1.176 a 1.051,1.051 0 0 0 1.268,0 l 1.555,-1.176 2.56,-1.935 -4.743,-3.584 z"
         class="tanuki-shape chin"
         id="path3-8" /><path
         fill="#fc6d26"
         d="M 5.01,11.461 A 11.43,11.43 0 0 0 0.45,9.411 L 0.416,9.5 a 6.297,6.297 0 0 0 2.09,7.278 l 0.012,0.01 0.03,0.022 5.16,3.867 4.745,-3.584 -7.444,-5.632 z"
         class="tanuki-shape left-cheek"
         id="path4-7" /></g><path
       style="fill:#ffffff;fill-opacity:1;stroke:#000000;stroke-width:3.13219;stroke-linecap:butt;stroke-linejoin:round;stroke-dasharray:3.13219, 3.13219;stroke-dashoffset:0;stroke-opacity:1;paint-order:stroke fill markers"
       d="m 138.15803,160.64747 v 74.92527"
       id="path1-6" /><path
       style="fill:#ffffff;fill-opacity:1;stroke:#000000;stroke-width:5.07274;stroke-linecap:butt;stroke-linejoin:round;stroke-dasharray:none;stroke-dashoffset:0;stroke-opacity:1;marker-start:url(#ArrowWide-4);marker-end:url(#marker4-7);paint-order:stroke fill markers"
       d="M 99.561478,187.47081 H 176.75456"
       id="path2-0" /></g></svg>
